*******************************************************************************
                 H.P. Lovecraft's The Dark Sleep (2012) DVDRip
*******************************************************************************

-------------------------------------------------------------------------------
                              General Information
-------------------------------------------------------------------------------
Type.................: Movie



Video Format.........: AVI
Video Bitrate........: 2143
Resolution...........: 852.480
Color................: 8 bit
FPS..................: 23.976
Source...............: DVD 16x9
Original Format......: NTSC
Genre................: Horror
IMDb Rating..........: Not Yet Rated
Movie Information....: http://www.imdb.com/title/tt2118694/

-------------------------------------------------------------------------------
                               Post Information
-------------------------------------------------------------------------------
Posted by............: RadioResearch
Posted on............: 4/20/2013

-------------------------------------------------------------------------------
                                 Release Notes
-------------------------------------------------------------------------------
SEEDBOX SUPPORTED!!

The Dark Sleep is a new horror film depicting a nightmarish journey into another 
dimension when a young woman discovers the remnants of an ancient cult beneath 
her house. The Dark Sleep features amazing stop-motion animation special effects 
in the Ray Harryhausen tradition and writer/director Brett Piper's visual flair 
brings this adaptation of H.P. Lovecraft's DREAMS IN THE WITCH HOUSE to vibrant 
frightful life. 

The film looks interesting, if not a little bit schlocky.  Perfect for a pizza 
and beer night in front of the TV.

Enjoy!
RadioResearch

General
Complete name                            : G:H.P. Lovecraft's The Dark Sleep 
(2012) DVDRipTitle 03.avi
Format                                   : AVI
Format/Info                              : Audio Video Interleave
Format profile                           : OpenDML
File size                                : 1.21 GiB
Duration                                 : 1h 20mn
Overall bit rate mode                    : Variable
Overall bit rate                         : 2 143 Kbps
Writing application                      : Lavf51.12.1

Video
ID                                       : 0
Format                                   : AVC
Format/Info                              : Advanced Video Codec
Format profile                           : Baseline@L3.0
Format settings, CABAC                   : No
Format settings, ReFrames                : 1 frame
Format settings, GOP                     : M=1, N=12
Codec ID                                 : H264
Duration                                 : 1h 20mn
Bit rate mode                            : Variable
Bit rate                                 : 2 001 Kbps
Maximum bit rate                         : 3 000 Kbps
Width                                    : 852 pixels
Height                                   : 480 pixels
Display aspect ratio                     : 16:9
Frame rate                               : 23.976 fps
Original frame rate                      : 24.000 fps
Color space                              : YUV
Chroma subsampling                       : 4:2:0
Bit depth                                : 8 bits
Scan type                                : Progressive
Bits/(Pixel*Frame)                       : 0.204
Stream size                              : 1.13 GiB (93%)

Audio
ID                                       : 1
Format                                   : MPEG Audio
Format version                           : Version 1
Format profile                           : Layer 3
Mode                                     : Joint stereo
Mode extension                           : MS Stereo
Codec ID                                 : 55
Codec ID/Hint                            : MP3
Duration                                 : 1h 20mn
Bit rate mode                            : Constant
Bit rate                                 : 128 Kbps
Channel(s)                               : 2 channels
Sampling rate                            : 44.1 KHz
Compression mode                         : Lossy
Stream size                              : 73.8 MiB (6%)
Alignment                                : Aligned on interleaves
Interleave, duration                     : 26 ms (0.63 video frame)
Writing library                          : LAME3.97




-------------------------------------------------------------------------------
Generated with Cool NFO Creator - http://fly.to/coolbeans
-------------------------------------------------------------------------------
